<svg xmlns="http://www.w3.org/2000/svg" width="38.3" height="38.299" viewBox="0 0 38.3 38.299">
  <g id="bids" transform="translate(-6 -6)">
    <g id="color" transform="translate(7.197 7.197)">
      <g id="Group_1115" data-name="Group 1115" transform="translate(0 29.522)">
        <path id="Path_4519" data-name="Path 4519" d="M27.495,31.633H8.346a1.6,1.6,0,0,1-1.6-1.6V26.846a1.6,1.6,0,0,1,1.6-1.6H27.495a1.6,1.6,0,0,1,1.6,1.6v3.192A1.6,1.6,0,0,1,27.495,31.633Z" transform="translate(-6.75 -25.25)" fill="#055cf2"/>
      </g>
      <g id="Group_1117" data-name="Group 1117" transform="translate(5.585 12.322)">
        <path id="Path_4521" data-name="Path 4521" d="M19.676,22.778l-1.12,1.12a1.583,1.583,0,0,1-2.24,0l-5.6-5.6a1.583,1.583,0,0,1,0-2.24l1.12-1.12a1.583,1.583,0,0,1,2.24,0l5.6,5.6a1.586,1.586,0,0,1,0,2.24Z" transform="translate(-10.25 -14.472)" fill="#f3f3f1"/>
      </g>
      <g id="Group_1118" data-name="Group 1118" transform="translate(17.908)">
        <path id="Path_4522" data-name="Path 4522" d="M27.4,15.056l-1.12,1.12a1.583,1.583,0,0,1-2.24,0l-5.6-5.6a1.583,1.583,0,0,1,0-2.24l1.12-1.12a1.583,1.583,0,0,1,2.24,0l5.6,5.6A1.586,1.586,0,0,1,27.4,15.056Z" transform="translate(-17.972 -6.75)" fill="#f3f3f1"/>
      </g>
      <g id="Group_1119" data-name="Group 1119" transform="translate(19.58 13.995)">
        <path id="Path_4523" data-name="Path 4523" d="M33.931,27.07c-1.031-1.031-8.043-7.416-12.916-11.55L19.02,17.515C23.153,22.388,29.539,29.4,30.57,30.431c2.363,2.363,3.573,1.154,4.044.683S36.3,29.435,33.931,27.07Z" transform="translate(-19.02 -15.52)" fill="#f3f3f1"/>
      </g>
    </g>
    <g id="shadow" transform="translate(7.197 36.719)">
      <g id="Group_1120" data-name="Group 1120">
        <path id="Path_4524" data-name="Path 4524" d="M10.34,30.037V26.846a1.6,1.6,0,0,1,1.6-1.6H8.346a1.6,1.6,0,0,0-1.6,1.6v3.192a1.6,1.6,0,0,0,1.6,1.6h3.59A1.6,1.6,0,0,1,10.34,30.037Z" transform="translate(-6.75 -25.25)" fill="#217be4"/>
      </g>
    </g>
    <g id="_x31_.5" transform="translate(6 6)">
      <g id="Group_1126" data-name="Group 1126" transform="translate(0 29.522)">
        <g id="Group_1125" data-name="Group 1125">
          <path id="Path_4529" data-name="Path 4529" d="M27.942,33.277H8.793A2.8,2.8,0,0,1,6,30.484V27.293A2.8,2.8,0,0,1,8.793,24.5H27.942a2.8,2.8,0,0,1,2.793,2.793v3.192A2.8,2.8,0,0,1,27.942,33.277ZM8.793,26.894a.4.4,0,0,0-.4.4v3.192a.4.4,0,0,0,.4.4H27.942a.4.4,0,0,0,.4-.4V27.293a.4.4,0,0,0-.4-.4Z" transform="translate(-6 -24.5)"/>
        </g>
      </g>
      <g id="Group_1137" data-name="Group 1137" transform="translate(5.585)">
        <g id="Group_1133" data-name="Group 1133">
          <g id="Group_1128" data-name="Group 1128" transform="translate(3.651 3.653)">
            <g id="Group_1127" data-name="Group 1127">
              <path id="Path_4530" data-name="Path 4530" d="M19.208,25.59a1.768,1.768,0,0,1-1.3-.523l-5.6-5.6c-1.208-1.206,0-3.1.4-3.726a22.266,22.266,0,0,1,2.96-3.562,22.184,22.184,0,0,1,3.567-2.967c.626-.4,2.523-1.609,3.731-.4l5.6,5.6c1.628,1.628-.932,4.869-3.367,7.3a22.228,22.228,0,0,1-3.56,2.959,4.979,4.979,0,0,1-2.43.918Zm-4.993-7.607,5.18,5.18c1.739-.424,6.846-5.531,7.269-7.27l-5.18-5.18C19.745,11.138,14.64,16.244,14.215,17.983Z" transform="translate(-11.788 -8.289)"/>
            </g>
          </g>
          <g id="Group_1130" data-name="Group 1130" transform="translate(0 12.325)">
            <g id="Group_1129" data-name="Group 1129">
              <path id="Path_4531" data-name="Path 4531" d="M17.881,26a2.772,2.772,0,0,1-1.966-.814l-5.6-5.6a2.78,2.78,0,0,1,0-3.932l1.119-1.12a2.783,2.783,0,0,1,3.934,0l5.6,5.6a2.783,2.783,0,0,1,0,3.934l-1.12,1.12A2.778,2.778,0,0,1,17.881,26ZM13.4,16.115a.389.389,0,0,0-.274.113l-1.12,1.12a.389.389,0,0,0,0,.549l5.6,5.6a.391.391,0,0,0,.547,0l1.12-1.12a.388.388,0,0,0,0-.549l-5.6-5.6a.386.386,0,0,0-.273-.113Z" transform="translate(-9.5 -13.723)"/>
            </g>
          </g>
          <g id="Group_1132" data-name="Group 1132" transform="translate(12.325)">
            <g id="Group_1131" data-name="Group 1131">
              <path id="Path_4532" data-name="Path 4532" d="M25.6,18.281a2.769,2.769,0,0,1-1.966-.814l-5.6-5.6a2.784,2.784,0,0,1,0-3.932l1.12-1.12a2.78,2.78,0,0,1,3.932,0l5.6,5.6a2.783,2.783,0,0,1,0,3.934l-1.12,1.119A2.772,2.772,0,0,1,25.6,18.281ZM21.123,8.394a.386.386,0,0,0-.273.113l-1.12,1.12a.389.389,0,0,0,0,.547l5.6,5.6a.391.391,0,0,0,.549,0L27,14.657a.388.388,0,0,0,0-.549l-5.6-5.6A.4.4,0,0,0,21.123,8.394Z" transform="translate(-17.224 -6)"/>
            </g>
          </g>
        </g>
        <g id="Group_1136" data-name="Group 1136" transform="translate(14.28 14.281)">
          <g id="Group_1135" data-name="Group 1135">
            <g id="Group_1134" data-name="Group 1134">
              <path id="Path_4533" data-name="Path 4533" d="M33.459,33.39a5.166,5.166,0,0,1-3.394-1.771c-1.1-1.1-7.591-8.244-11.616-12.988l1.826-1.549c4.186,4.934,10.534,11.895,11.483,12.844,1.514,1.514,2,1.036,2.352.685a1.044,1.044,0,0,0,.377-.586c.019-.193-.045-.752-1.06-1.765-.94-.942-7.889-7.28-12.844-11.483l1.549-1.827C26.9,18.991,34.027,25.471,35.12,26.566a4.743,4.743,0,0,1,1.749,3.7,3.8,3.8,0,0,1-3.41,3.128Z" transform="translate(-18.449 -14.949)"/>
            </g>
          </g>
        </g>
      </g>
    </g>
  </g>
</svg>
