<svg xmlns="http://www.w3.org/2000/svg" width="53.335" height="40" viewBox="0 0 53.335 40">
  <g id="buildings" transform="translate(-2 -8.286)">
    <g id="Group_1160" data-name="Group 1160" transform="translate(30.751 17.968)">
      <path id="Path_4621" data-name="Path 4621" d="M34.251,40.878v-22.5l-15-6.567V40.878Z" transform="translate(-19.25 -11.81)" fill="#217be4"/>
    </g>
    <g id="Group_1162" data-name="Group 1162" transform="translate(30.751 17.968)">
      <path id="Path_4623" data-name="Path 4623" d="M19.25,11.81V40.878H23V13.452Z" transform="translate(-19.25 -11.81)" fill="#217be4"/>
    </g>
    <g id="Group_1163" data-name="Group 1163" transform="translate(12 8.286)">
      <path id="Path_4624" data-name="Path 4624" d="M28,44.751H25.5V9.063l-15,5.715V44.751H8V13.916a1.249,1.249,0,0,1,.805-1.168l17.5-6.667a1.261,1.261,0,0,1,1.155.14A1.248,1.248,0,0,1,28,7.249Z" transform="translate(-8 -6.001)"/>
    </g>
    <g id="Group_1164" data-name="Group 1164" transform="translate(34.934 18.818)">
      <path id="Path_4625" data-name="Path 4625" d="M33.827,41.788h-2.5V18.849L21.76,14.605l1.013-2.285,10.31,4.573a1.252,1.252,0,0,1,.743,1.143Z" transform="translate(-21.76 -12.32)"/>
    </g>
    <g id="Group_1165" data-name="Group 1165" transform="translate(17.001 18.285)">
      <path id="Path_4626" data-name="Path 4626" d="M11,12h2.5v5H11Z" transform="translate(-11 -12)"/>
    </g>
    <g id="Group_1166" data-name="Group 1166" transform="translate(24.501 18.285)">
      <path id="Path_4627" data-name="Path 4627" d="M15.5,12H18v5H15.5Z" transform="translate(-15.5 -12)"/>
    </g>
    <g id="Group_1167" data-name="Group 1167" transform="translate(17.001 28.285)">
      <path id="Path_4628" data-name="Path 4628" d="M11,18h2.5v5H11Z" transform="translate(-11 -18)"/>
    </g>
    <g id="Group_1168" data-name="Group 1168" transform="translate(24.501 28.285)">
      <path id="Path_4629" data-name="Path 4629" d="M15.5,18H18v5H15.5Z" transform="translate(-15.5 -18)"/>
    </g>
    <g id="Group_1169" data-name="Group 1169" transform="translate(17.001 38.286)">
      <path id="Path_4630" data-name="Path 4630" d="M11,24h2.5v5H11Z" transform="translate(-11 -24)"/>
    </g>
    <g id="Group_1170" data-name="Group 1170" transform="translate(24.501 38.286)">
      <path id="Path_4631" data-name="Path 4631" d="M15.5,24H18v5H15.5Z" transform="translate(-15.5 -24)"/>
    </g>
    <g id="Group_1171" data-name="Group 1171" transform="translate(34.501 28.285)">
      <path id="Path_4632" data-name="Path 4632" d="M21.5,18H24v5H21.5Z" transform="translate(-21.5 -18)"/>
    </g>
    <g id="Group_1172" data-name="Group 1172" transform="translate(39.501 28.285)">
      <path id="Path_4633" data-name="Path 4633" d="M24.5,18H27v5H24.5Z" transform="translate(-24.5 -18)"/>
    </g>
    <g id="Group_1173" data-name="Group 1173" transform="translate(34.501 38.286)">
      <path id="Path_4634" data-name="Path 4634" d="M21.5,24H24v5H21.5Z" transform="translate(-21.5 -24)"/>
    </g>
    <g id="Group_1174" data-name="Group 1174" transform="translate(39.501 38.286)">
      <path id="Path_4635" data-name="Path 4635" d="M24.5,24H27v5H24.5Z" transform="translate(-24.5 -24)"/>
    </g>
    <g id="Group_1175" data-name="Group 1175" transform="translate(2 45.786)">
      <path id="Path_4636" data-name="Path 4636" d="M2,28.5H55.335V31H2Z" transform="translate(-2 -28.5)"/>
    </g>
  </g>
</svg>
