<svg id="calculater" xmlns="http://www.w3.org/2000/svg" width="110" height="110" viewBox="0 0 110 110">
  <path id="Path_4456" data-name="Path 4456" d="M89.375,110H20.625A20.624,20.624,0,0,1,0,89.375V20.625A20.624,20.624,0,0,1,20.625,0h68.75A20.624,20.624,0,0,1,110,20.625v68.75A20.624,20.624,0,0,1,89.375,110Z" fill="#fafafa"/>
  <path id="Path_4457" data-name="Path 4457" d="M12.628,8A4.629,4.629,0,0,0,8,12.628V27.357H27.359V8ZM20.2,19.363H18.519v1.684a1.263,1.263,0,0,1-2.525,0V19.363H14.313a1.263,1.263,0,1,1,0-2.525H16V15.153a1.263,1.263,0,0,1,2.525,0v1.684h1.684a1.263,1.263,0,1,1,0,2.525Z" transform="translate(26.8 26.8)" fill="#217be4"/>
  <path id="Path_4458" data-name="Path 4458" d="M8,16.333V31.062a4.63,4.63,0,0,0,4.628,4.631H27.357V16.333ZM20.676,27.226a1.263,1.263,0,0,1-1.788,1.785L17.676,27.8l-1.212,1.212a1.248,1.248,0,0,1-.889.369,1.261,1.261,0,0,1-.894-2.154l1.212-1.212L14.681,24.8a1.262,1.262,0,1,1,1.785-1.785l1.212,1.212,1.212-1.212A1.262,1.262,0,0,1,20.676,24.8l-1.212,1.212Z" transform="translate(26.8 39.508)" fill="#ffe777"/>
  <path id="Path_4459" data-name="Path 4459" d="M31.063,8H16.334V27.359H35.691V12.628A4.629,4.629,0,0,0,31.063,8Zm-.843,10.941H22.644a1.263,1.263,0,1,1,0-2.525h7.575a1.263,1.263,0,1,1,0,2.525Z" transform="translate(39.509 26.8)" fill="#ffe777"/>
  <path id="Path_4460" data-name="Path 4460" d="M16.333,16.333V35.692H31.062a4.63,4.63,0,0,0,4.631-4.628V16.336H16.333ZM29.8,29.8H22.226a1.263,1.263,0,1,1,0-2.525H29.8a1.263,1.263,0,1,1,0,2.525Zm0-5.05H22.226a1.263,1.263,0,1,1,0-2.525H29.8a1.263,1.263,0,1,1,0,2.525Z" transform="translate(39.508 39.508)" fill="#217be4"/>
</svg>
