<svg id="call" xmlns="http://www.w3.org/2000/svg" width="23.067" height="23.067" viewBox="0 0 23.067 23.067">
  <g id="call-2" data-name="call">
    <path id="Vector" d="M8.7,12.447,6.92,14.225a.966.966,0,0,1-1.355.01c-.106-.106-.211-.2-.317-.308a27.309,27.309,0,0,1-2.682-3.143A17.135,17.135,0,0,1,.682,7.507,8.252,8.252,0,0,1,0,4.364,4.972,4.972,0,0,1,.346,2.509,4.424,4.424,0,0,1,1.451.9a2.816,2.816,0,0,1,2-.9,1.806,1.806,0,0,1,.779.173,1.567,1.567,0,0,1,.644.538L7.1,3.854a3.289,3.289,0,0,1,.384.673,1.519,1.519,0,0,1,.135.586,1.3,1.3,0,0,1-.2.682,3.269,3.269,0,0,1-.538.682l-.73.759A.514.514,0,0,0,6,7.622a.873.873,0,0,0,.029.221c.029.077.058.135.077.192A7.976,7.976,0,0,0,7,9.265c.433.5.894,1.009,1.394,1.519.1.1.2.192.3.288A.963.963,0,0,1,8.7,12.447Z" transform="translate(1.922 1.922)" fill="#055cf2"/>
    <path id="Vector-2" data-name="Vector" d="M11.889,4.123a2.441,2.441,0,0,1-.144.817,2.347,2.347,0,0,1-.1.231,3.966,3.966,0,0,1-.654.98A4.333,4.333,0,0,1,9.419,7.285c-.01,0-.019.01-.029.01a4.855,4.855,0,0,1-1.845.356,8.01,8.01,0,0,1-3.133-.7,16.882,16.882,0,0,1-3.306-1.9C.73,4.767.356,4.489,0,4.191L3.143,1.048a5.4,5.4,0,0,0,.711.461c.048.019.106.048.173.077a.664.664,0,0,0,.24.038.529.529,0,0,0,.394-.163L5.392.74A2.949,2.949,0,0,1,6.084.2,1.28,1.28,0,0,1,6.766,0a1.534,1.534,0,0,1,.586.125A3.717,3.717,0,0,1,8.026.5l3.181,2.259a1.458,1.458,0,0,1,.529.615A1.972,1.972,0,0,1,11.889,4.123Z" transform="translate(9.227 13.494)" fill="#055cf2"/>
    <path id="Vector-3" data-name="Vector" d="M0,0H23.067V23.067H0Z" transform="translate(23.067 23.067) rotate(180)" fill="none" opacity="0"/>
  </g>
</svg>
