<svg xmlns="http://www.w3.org/2000/svg" width="57.6" height="57.6" viewBox="0 0 57.6 57.6">
  <g id="checked" transform="translate(0)">
    <path id="Path_3778" data-name="Path 3778" d="M48.27,0H9.331A9.331,9.331,0,0,0,0,9.33V48.27a9.331,9.331,0,0,0,9.33,9.33H48.27a9.331,9.331,0,0,0,9.33-9.33V9.33A9.331,9.331,0,0,0,48.27,0Zm0,0" fill="#b2e59c"/>
    <path id="Path_3779" data-name="Path 3779" d="M32.233,0H9.331A9.331,9.331,0,0,0,0,9.33V48.27a9.331,9.331,0,0,0,9.33,9.33H21.346c-9.457-11.341-5.9-32.3,1.246-40.473,6.9-7.894,9-14.213,9.641-17.127Zm0,0" fill="#9ad880"/>
    <path id="Path_3780" data-name="Path 3780" d="M101.145,158.136a4.635,4.635,0,0,1-3.187-1.27L85.82,145.376a4.636,4.636,0,0,1,6.374-6.733l8.684,8.22,14.026-15.6a4.636,4.636,0,1,1,6.9,6.2L104.593,156.6a4.637,4.637,0,0,1-3.261,1.533c-.062,0-.125,0-.187,0Zm0,0" transform="translate(-74.879 -115.13)" fill="#fff"/>
    <path id="Path_3781" data-name="Path 3781" d="M92.194,198.991a4.636,4.636,0,0,0-6.374,6.733l4.921,4.659a41.342,41.342,0,0,1,2.494-10.406Zm0,0" transform="translate(-74.879 -175.478)" fill="#ccf8ff"/>
  </g>
</svg>
