<svg xmlns="http://www.w3.org/2000/svg" width="34.3" height="34.3" viewBox="0 0 34.3 34.3">
  <g id="companies" transform="translate(-6 -6)">
    <path id="Path_4592" data-name="Path 4592" d="M32.327,32.04H20.179A1.43,1.43,0,0,1,18.75,30.61V24.179a1.43,1.43,0,0,1,1.429-1.429H32.327a1.43,1.43,0,0,1,1.429,1.429V30.61A1.43,1.43,0,0,1,32.327,32.04Z" transform="translate(5.472 7.189)" fill="#217be4"/>
    <path id="Path_4595" data-name="Path 4595" d="M21.966,30.61V24.179a1.43,1.43,0,0,1,1.429-1.429H20.179a1.43,1.43,0,0,0-1.429,1.429V30.61a1.43,1.43,0,0,0,1.429,1.429h3.216A1.43,1.43,0,0,1,21.966,30.61Z" transform="translate(5.472 7.189)" fill="#055cf2"/>
    <path id="Path_4596" data-name="Path 4596" d="M17.146,20.292a7.146,7.146,0,1,1,7.146-7.146A7.154,7.154,0,0,1,17.146,20.292Zm0-12.148a5,5,0,1,0,5,5A5.008,5.008,0,0,0,17.146,8.144Z" transform="translate(1.717 0)"/>
    <path id="Path_4597" data-name="Path 4597" d="M20.292,30.863H7.072A1.072,1.072,0,0,1,6,29.791v-5A6.8,6.8,0,0,1,12.789,18h13.22v2.144H12.789a4.65,4.65,0,0,0-4.645,4.645v3.93H20.292Z" transform="translate(0 5.15)"/>
    <path id="Path_4598" data-name="Path 4598" d="M32.649,33.433H20.5a2.5,2.5,0,0,1-2.5-2.5V24.5A2.5,2.5,0,0,1,20.5,22H32.649a2.5,2.5,0,0,1,2.5,2.5v6.431A2.5,2.5,0,0,1,32.649,33.433ZM20.5,24.144a.357.357,0,0,0-.357.357v6.431a.357.357,0,0,0,.357.357H32.649a.357.357,0,0,0,.357-.357V24.5a.357.357,0,0,0-.357-.357Z" transform="translate(5.15 6.867)"/>
    <path id="Path_4599" data-name="Path 4599" d="M29.575,24.145H27.431V22a.357.357,0,0,0-.357-.357H23.5a.357.357,0,0,0-.357.357v2.144H21V22a2.5,2.5,0,0,1,2.5-2.5h3.573a2.5,2.5,0,0,1,2.5,2.5Z" transform="translate(6.438 5.794)"/>
    <path id="Path_4600" data-name="Path 4600" d="M26.391,28.686a1.061,1.061,0,0,1-.46-.1l-7.5-3.573.922-1.935,7.042,3.353,7.043-3.354.922,1.935-7.5,3.573A1.053,1.053,0,0,1,26.391,28.686Z" transform="translate(5.334 7.327)"/>
  </g>
</svg>
