<svg xmlns="http://www.w3.org/2000/svg" width="41" height="39.72" viewBox="0 0 41 39.72">
  <g id="constructions" transform="translate(-7.744 -8.592)">
    <path id="Path_4535" data-name="Path 4535" d="M19.75,10.75h5.979v31.6H19.75Z" transform="translate(11.484 5.958)" fill="#217be4"/>
    <path id="Path_4536" data-name="Path 4536" d="M26.5,14.25h4.7v5.125H26.5Z" transform="translate(16.265 8.437)" fill="#217be4"/>
    <path id="Path_4538" data-name="Path 4538" d="M19.75,10.75h3.844v31.6H19.75Z" transform="translate(11.484 5.958)" fill="#217be4"/>
    <path id="Path_4539" data-name="Path 4539" d="M32.375,10.75H28.531L6.75,13.74v2.99h3.844V13.74Z" transform="translate(2.276 5.958)" fill="#d5dbe1"/>
    <path id="Path_4545" data-name="Path 4545" d="M11.167,32.26a3.559,3.559,0,0,1-3.417-3.6,3.666,3.666,0,0,1,1.442-2.938,1.85,1.85,0,0,0,.694-1.491V14.75h2.562v9.481a4.418,4.418,0,0,1-1.722,3.543,1.1,1.1,0,0,0-.413.887,1,1,0,0,0,.854,1.037.961.961,0,0,0,.854-1.037h2.562A3.515,3.515,0,0,1,11.167,32.26Z" transform="translate(2.984 8.791)"/>
    <path id="Path_4546" data-name="Path 4546" d="M27.542,42.885H24.979V12.562H21.563V42.885H19v-31.6A1.282,1.282,0,0,1,20.281,10H26.26a1.282,1.282,0,0,1,1.281,1.281Z" transform="translate(10.953 5.427)"/>
    <path id="Path_4549" data-name="Path 4549" d="M2.563,9.08h0Z" transform="matrix(0.753, -0.659, 0.659, 0.753, 30.295, 23.949)"/>
    <path id="Path_4550" data-name="Path 4550" d="M45.719,18.537H7.281A1.282,1.282,0,0,1,6,17.255v-2.99A1.28,1.28,0,0,1,7.107,13l21.781-2.99.347,2.539L8.562,15.383v.591H44.437v-.759L35.522,12.5l.748-2.451,9.823,2.99A1.279,1.279,0,0,1,47,14.266v2.99a1.282,1.282,0,0,1-1.281,1.281Z" transform="translate(1.744 5.432)"/>
    <path id="Path_4551" data-name="Path 4551" d="M20.75,6.75h2.563v6.406H20.75Z" transform="translate(12.192 3.125)"/>
    <path id="Path_4552" data-name="Path 4552" d="M31.729,21.187h-4.7a1.282,1.282,0,0,1-1.281-1.281V14.781A1.282,1.282,0,0,1,27.031,13.5h4.7a1.282,1.282,0,0,1,1.281,1.281v5.125A1.282,1.282,0,0,1,31.729,21.187Zm-3.417-2.562h2.135V16.063H28.313Z" transform="translate(15.734 7.906)"/>
    <path id="Path_4553" data-name="Path 4553" d="M8.686,17.9l-.97-2.373L30.778,6.095a1.281,1.281,0,0,1,1.292.19l11.1,8.969-1.611,1.994L31.05,8.753Z" transform="translate(2.96 2.593)"/>
  </g>
</svg>
