<svg xmlns="http://www.w3.org/2000/svg" width="19.2" height="20.2" viewBox="0 0 19.2 20.2">
  <g id="delete" transform="translate(-63.315 -147)">
    <g id="vuesax_outline_trash" data-name="vuesax/outline/trash" transform="translate(-44.685 -41)">
      <g id="trash" transform="translate(108 188)">
        <path id="Vector" d="M14.822,1.7h-.063A58.49,58.49,0,0,0,2.271,1.528L.659,1.7A.608.608,0,0,1,0,1.124a.618.618,0,0,1,.53-.69L2.145.266A60.248,60.248,0,0,1,14.878.434a.623.623,0,0,1,.53.69A.6.6,0,0,1,14.822,1.7Z" transform="translate(1.891 3.968)" fill="#eb001b"/>
        <path id="Vector-2" data-name="Vector" d="M.632,3.762a.518.518,0,0,1-.109-.008A.634.634,0,0,1,.009,3.03l.185-1.1C.329,1.119.514,0,2.475,0H4.68C6.65,0,6.835,1.161,6.961,1.936L7.146,3.03a.628.628,0,1,1-1.237.21L5.724,2.146c-.118-.732-.143-.875-1.035-.875H2.484c-.892,0-.909.118-1.035.867L1.255,3.232A.632.632,0,0,1,.632,3.762Z" transform="translate(6.022 1.052)" fill="#eb001b"/>
        <path id="Vector-3" data-name="Vector" d="M8.389,12.087H3.408C.7,12.087.591,10.463.506,9.15L0,.674A.622.622,0,0,1,.545,0,.607.607,0,0,1,1.165.59l.5,8.476c.085,1.279.116,1.759,1.738,1.759H8.389c1.629,0,1.66-.48,1.738-1.759l.5-8.476A.585.585,0,1,1,11.8.674l-.5,8.476C11.205,10.463,11.1,12.087,8.389,12.087Z" transform="translate(3.702 7.061)" fill="#eb001b"/>
        <path id="Vector-4" data-name="Vector" d="M3.434,1.262H.631A.636.636,0,0,1,0,.631.636.636,0,0,1,.631,0h2.8a.636.636,0,0,1,.631.631A.636.636,0,0,1,3.434,1.262Z" transform="translate(7.563 13.256)" fill="#eb001b"/>
        <path id="Vector-5" data-name="Vector" d="M4.84,1.262H.631A.636.636,0,0,1,0,.631.636.636,0,0,1,.631,0H4.84a.636.636,0,0,1,.631.631A.636.636,0,0,1,4.84,1.262Z" transform="translate(6.865 9.89)" fill="#eb001b"/>
        <path id="Vector-6" data-name="Vector" d="M0,0H19.2V20.2H0Z" fill="none" opacity="0"/>
      </g>
    </g>
  </g>
</svg>
