<svg xmlns="http://www.w3.org/2000/svg" width="24" height="24" viewBox="0 0 24 24">
  <g id="edit" transform="translate(-620 -252)">
    <g id="edit-2" data-name="edit">
      <path id="Vector" d="M13.75,21.5h-6C2.32,21.5,0,19.18,0,13.75v-6C0,2.32,2.32,0,7.75,0h2a.755.755,0,0,1,.75.75.755.755,0,0,1-.75.75h-2C3.14,1.5,1.5,3.14,1.5,7.75v6C1.5,18.36,3.14,20,7.75,20h6C18.36,20,20,18.36,20,13.75v-2a.75.75,0,0,1,1.5,0v2C21.5,19.18,19.18,21.5,13.75,21.5Z" transform="translate(621.25 253.25)" fill="#292d32"/>
      <path id="Vector-2" data-name="Vector" d="M2.2,16.693a2.239,2.239,0,0,1-1.58-.62,2.25,2.25,0,0,1-.59-1.95l.43-3.01a3.468,3.468,0,0,1,.87-1.74l7.88-7.88c1.99-1.99,4.01-1.99,6,0a4.175,4.175,0,0,1,1.48,3.31,4.448,4.448,0,0,1-1.48,2.68l-7.88,7.88a3.468,3.468,0,0,1-1.74.87l-3.01.43A1.668,1.668,0,0,1,2.2,16.693Zm8.07-14.14-7.88,7.88a2.035,2.035,0,0,0-.45.89l-.43,3.01a.785.785,0,0,0,.17.68.785.785,0,0,0,.68.17l3.01-.43a1.983,1.983,0,0,0,.89-.45l7.88-7.88a3.069,3.069,0,0,0,1.04-1.77,2.776,2.776,0,0,0-1.04-2.11C12.539.942,11.439,1.393,10.269,2.553Z" transform="translate(626.301 252.997)" fill="#292d32"/>
      <path id="Vector-3" data-name="Vector" d="M5.687,6.447a.645.645,0,0,1-.2-.03A7.937,7.937,0,0,1,.027.957a.76.76,0,0,1,.52-.93.745.745,0,0,1,.92.52,6.425,6.425,0,0,0,4.42,4.42.755.755,0,0,1,.52.93A.736.736,0,0,1,5.687,6.447Z" transform="translate(634.163 255.383)" fill="#292d32"/>
      <path id="Vector-4" data-name="Vector" d="M0,0H24V24H0Z" transform="translate(620 252)" fill="none" opacity="0"/>
    </g>
  </g>
</svg>
