<svg id="email" xmlns="http://www.w3.org/2000/svg" width="18.934" height="18.934" viewBox="0 0 18.934 18.934">
  <g id="sms">
    <path id="Vector" d="M0,0H18.934V18.934H0Z" fill="none" opacity="0"/>
    <path id="Vector-2" data-name="Vector" d="M11.833,0H3.944C1.578,0,0,1.183,0,3.944V9.467c0,2.761,1.578,3.944,3.944,3.944h7.889c2.367,0,3.944-1.183,3.944-3.944V3.944C15.778,1.183,14.2,0,11.833,0ZM12.2,4.8,9.735,6.777a3.046,3.046,0,0,1-3.692,0L3.574,4.8a.607.607,0,0,1-.095-.836.59.59,0,0,1,.828-.095L6.777,5.846a1.882,1.882,0,0,0,2.217,0l2.469-1.972a.582.582,0,0,1,.828.095A.6.6,0,0,1,12.2,4.8Z" transform="translate(1.578 2.761)" fill="#055cf2"/>
  </g>
</svg>
