<svg xmlns="http://www.w3.org/2000/svg" width="34.8" height="30.45" viewBox="0 0 34.8 30.45">
  <g id="engineer" transform="translate(-6 -7)">
    <path id="Path_4506" data-name="Path 4506" d="M36.838,28.825H9.288a2.538,2.538,0,1,1,0-5.075h27.55a2.538,2.538,0,0,1,0,5.075Z" transform="translate(0.338 7.538)" fill="#055cf2"/>
    <path id="Path_4508" data-name="Path 4508" d="M10.013,26.288A2.538,2.538,0,0,1,12.55,23.75H9.288a2.538,2.538,0,1,0,0,5.075H12.55A2.538,2.538,0,0,1,10.013,26.288Z" transform="translate(0.338 7.538)" fill="#00b871"/>
    <path id="Path_4510" data-name="Path 4510" d="M9.175,29.848H7V24.773A16.333,16.333,0,0,1,17.875,9.393l.725,2.05a14.156,14.156,0,0,0-9.425,13.33Z" transform="translate(0.45 1.077)"/>
    <path id="Path_4511" data-name="Path 4511" d="M32.6,29.849H30.425V24.774A14.186,14.186,0,0,0,21,11.442l.729-2.05A16.362,16.362,0,0,1,32.6,24.774Z" transform="translate(6.75 1.076)"/>
    <path id="Path_4512" data-name="Path 4512" d="M37.175,30.25H9.625a3.625,3.625,0,1,1,0-7.25h27.55a3.625,3.625,0,0,1,0,7.25ZM9.625,25.175a1.45,1.45,0,1,0,0,2.9h27.55a1.45,1.45,0,0,0,0-2.9Z" transform="translate(0 7.2)"/>
    <path id="Path_4513" data-name="Path 4513" d="M25.6,17.513H23.425V10.988a1.815,1.815,0,0,0-1.813-1.813H17.988a1.815,1.815,0,0,0-1.813,1.813v6.525H14V10.988A3.991,3.991,0,0,1,17.988,7h3.625A3.991,3.991,0,0,1,25.6,10.988Z" transform="translate(3.6 0)"/>
  </g>
</svg>
