<svg xmlns="http://www.w3.org/2000/svg" width="17.3" height="17.3" viewBox="0 0 17.3 17.3">
  <g id="eye" transform="translate(-108 -188)">
    <g id="eye-2" data-name="eye" transform="translate(108 188)">
      <path id="Vector" d="M5.161,2.581A2.581,2.581,0,1,1,2.581,0,2.578,2.578,0,0,1,5.161,2.581Z" transform="translate(6.069 6.069)" fill="none" stroke="#055cf2" stroke-linecap="round" stroke-linejoin="round" stroke-width="1.2"/>
      <path id="Vector-2" data-name="Vector" d="M7.053,11.93c2.545,0,4.916-1.5,6.567-4.094a3.839,3.839,0,0,0,0-3.741C11.969,1.5,9.6,0,7.053,0S2.137,1.5.487,4.094a3.839,3.839,0,0,0,0,3.741C2.137,10.43,4.509,11.93,7.053,11.93Z" transform="translate(1.597 2.681)" fill="none" stroke="#055cf2" stroke-linecap="round" stroke-linejoin="round" stroke-width="1.2"/>
      <path id="Vector-3" data-name="Vector" d="M0,0H17.3V17.3H0Z" transform="translate(17.3 17.3) rotate(180)" fill="none" opacity="0"/>
    </g>
  </g>
</svg>
