<svg xmlns="http://www.w3.org/2000/svg" width="40.866" height="53.221" viewBox="0 0 40.866 53.221">
  <g id="file" transform="translate(-6.5)">
    <g id="Group_705" data-name="Group 705" transform="translate(6.5)">
      <path id="Path_4445" data-name="Path 4445" d="M35.472,0H7.89C7.122,0,6.5.622,6.5,1.83v50.44a1.431,1.431,0,0,0,1.39.95H45.976a1.431,1.431,0,0,0,1.39-.95V12.334c0-.661-.088-.874-.244-1.031L36.063.244A.84.84,0,0,0,35.472,0Z" transform="translate(-6.5)" fill="#e9e9e0"/>
      <path id="Path_4446" data-name="Path 4446" d="M37.5.151V11.412H48.761Z" transform="translate(-8.038 -0.007)" fill="#d9d7ca"/>
      <path id="Path_4447" data-name="Path 4447" d="M19.41,32.013h0a1.526,1.526,0,0,1-.919-.31,2.278,2.278,0,0,1-1.06-2.131c.173-1.547,2.086-3.167,5.688-4.817a63.8,63.8,0,0,0,3.6-10.217c-.948-2.064-1.87-4.742-1.2-6.313A1.823,1.823,0,0,1,26.6,7.071a4.666,4.666,0,0,1,.966-.163c.479,0,.9.617,1.2,1,.28.357.916,1.115-.354,6.464a30.368,30.368,0,0,0,4.836,7.187,18.489,18.489,0,0,1,3.191-.34c1.488,0,2.39.347,2.758,1.062a1.924,1.924,0,0,1-.371,2.053,2.526,2.526,0,0,1-2.11,1.132c-1.156,0-2.5-.73-4-2.172a45.538,45.538,0,0,0-8.39,2.682,26.965,26.965,0,0,1-2.265,4.04C21.082,31.376,20.242,32.013,19.41,32.013Zm2.53-4.872c-2.031,1.141-2.859,2.079-2.919,2.608-.01.087-.035.317.41.658C19.573,30.362,20.4,29.985,21.94,27.142ZM34.9,22.92c.775.6.964.9,1.47.9a1.433,1.433,0,0,0,1.15-.419A1.5,1.5,0,0,0,37.739,23c-.117-.062-.272-.187-1.117-.187A13.9,13.9,0,0,0,34.9,22.92Zm-7.1-6.255a67.754,67.754,0,0,1-2.541,7.189,47.486,47.486,0,0,1,6.174-1.92A32.532,32.532,0,0,1,27.8,16.665Zm-.577-8.042a2.279,2.279,0,0,0,.091,3.056C28.217,9.669,27.265,8.609,27.224,8.622Z" transform="translate(-7.042 -0.343)" fill="#cc4b4c"/>
      <path id="Path_4448" data-name="Path 4448" d="M45.976,55.156H7.89a1.39,1.39,0,0,1-1.39-1.39V39H47.366V53.766A1.39,1.39,0,0,1,45.976,55.156Z" transform="translate(-6.5 -1.935)" fill="#cc4b4c"/>
      <g id="Group_704" data-name="Group 704" transform="translate(8.785 40.794)">
        <path id="Path_4449" data-name="Path 4449" d="M17.3,52.5h-1.56V42.924H18.5a3.866,3.866,0,0,1,1.208.195,3.285,3.285,0,0,1,1.072.584,3.052,3.052,0,0,1,.767.942,2.609,2.609,0,0,1,.293,1.241,3.4,3.4,0,0,1-.247,1.319,2.757,2.757,0,0,1-.689.994,3.1,3.1,0,0,1-1.065.623,4.1,4.1,0,0,1-1.377.22H17.3V52.5Zm0-8.394V47.9h1.429a1.7,1.7,0,0,0,.565-.1,1.425,1.425,0,0,0,.513-.318,1.556,1.556,0,0,0,.376-.617,2.922,2.922,0,0,0,.143-.981,2.653,2.653,0,0,0-.065-.539A1.556,1.556,0,0,0,20,44.763a1.575,1.575,0,0,0-.565-.468,2.1,2.1,0,0,0-.962-.188H17.3Z" transform="translate(-15.744 -42.924)" fill="#fff"/>
        <path id="Path_4450" data-name="Path 4450" d="M31.815,47.446a7.035,7.035,0,0,1-.254,2.021,5.023,5.023,0,0,1-.643,1.4,3.3,3.3,0,0,1-.877.891,4.4,4.4,0,0,1-.942.488,3.891,3.891,0,0,1-.832.208,5.537,5.537,0,0,1-.559.044H24.084V42.924h2.884a5.48,5.48,0,0,1,2.124.383,4.41,4.41,0,0,1,1.521,1.02,4.186,4.186,0,0,1,.9,1.448A4.8,4.8,0,0,1,31.815,47.446ZM27.19,51.357a2.581,2.581,0,0,0,2.287-1.013,5.143,5.143,0,0,0,.7-2.937,4.974,4.974,0,0,0-.143-1.182,2.529,2.529,0,0,0-.552-1.059,2.914,2.914,0,0,0-1.111-.767,4.784,4.784,0,0,0-1.819-.293h-.91v7.25H27.19Z" transform="translate(-16.158 -42.924)" fill="#fff"/>
        <path id="Path_4451" data-name="Path 4451" d="M36.183,44.106v3.015h4v1.065h-4V52.5H34.6V42.924h5.989v1.182Z" transform="translate(-16.68 -42.924)" fill="#fff"/>
      </g>
    </g>
  </g>
</svg>
