<svg xmlns="http://www.w3.org/2000/svg" width="25" height="25" viewBox="0 0 25 25">
  <g id="gallery_add" transform="translate(-748 -252)">
    <g id="gallery-add" transform="translate(748 252)">
      <path id="Vector" d="M5.177,0H2.115A1.907,1.907,0,0,0,.24,1.042,2.177,2.177,0,0,0,0,2.115V5.177A1.944,1.944,0,0,0,2.115,7.292H5.177a2.177,2.177,0,0,0,1.073-.24A1.907,1.907,0,0,0,7.292,5.177V2.115A1.944,1.944,0,0,0,5.177,0Zm.979,4.094a.674.674,0,0,1-.427.188H4.26v.531l.01.917a.659.659,0,0,1-.2.448.615.615,0,0,1-.427.177.627.627,0,0,1-.625-.625V4.271l-1.458.01a.636.636,0,0,1-.625-.635.627.627,0,0,1,.625-.625l.917.01h.542V1.573a.625.625,0,1,1,1.25,0l-.01.74v.708H5.729a.627.627,0,0,1,.625.625A.709.709,0,0,1,6.156,4.094Z" transform="translate(16.667 1.042)" fill="#fff"/>
      <path id="Vector-2" data-name="Vector" d="M4.958,2.479A2.479,2.479,0,1,1,2.479,0,2.479,2.479,0,0,1,4.958,2.479Z" transform="translate(6.896 5.854)" fill="#fff"/>
      <path id="Vector-3" data-name="Vector" d="M19.76,6.25h-.49v4.8l-.135-.115a2.322,2.322,0,0,0-2.938,0l-4.333,3.719a2.322,2.322,0,0,1-2.938,0l-.354-.292a2.313,2.313,0,0,0-2.75-.146l-3.9,2.615a5.555,5.555,0,0,1-.365-2.052V6.052c0-2.938,1.552-4.49,4.49-4.49h8.531v-.49A2.177,2.177,0,0,1,14.823,0H6.052C2.26,0,0,2.26,0,6.052v8.729A7,7,0,0,0,.583,17.74c.9,1.979,2.813,3.094,5.469,3.094h8.729c3.792,0,6.052-2.26,6.052-6.052V6.01A2.177,2.177,0,0,1,19.76,6.25Z" transform="translate(2.083 2.083)" fill="#fff"/>
      <path id="Vector-4" data-name="Vector" d="M0,0H25V25H0Z" fill="none" opacity="0"/>
    </g>
  </g>
</svg>
