<svg xmlns="http://www.w3.org/2000/svg" width="33.823" height="33.823" viewBox="0 0 33.823 33.823">
  <g id="jobs" transform="translate(-7.088 -6.746)">
    <g id="Group_1143" data-name="Group 1143" transform="translate(8.145 30.351)">
      <path id="Path_4604" data-name="Path 4604" d="M6.75,22.75H38.459v3.523a1.41,1.41,0,0,1-1.409,1.409H8.159A1.41,1.41,0,0,1,6.75,26.273Z" transform="translate(-6.75 -22.75)" fill="#217be4"/>
    </g>
    <g id="Group_1144" data-name="Group 1144" transform="translate(19.42 35.284)">
      <path id="Path_4605" data-name="Path 4605" d="M21.8,26.25a8.274,8.274,0,0,0,2.086,4.228H14.75a8.15,8.15,0,0,0,2.086-4.228Z" transform="translate(-14.75 -26.25)" fill="#217be4"/>
    </g>
    <g id="Group_1145" data-name="Group 1145" transform="translate(16.601 11.326)">
      <path id="Path_4606" data-name="Path 4606" d="M26.138,18.41H14.159A1.41,1.41,0,0,1,12.75,17V10.659A1.41,1.41,0,0,1,14.159,9.25H26.138a1.41,1.41,0,0,1,1.409,1.409V17A1.41,1.41,0,0,1,26.138,18.41Z" transform="translate(-12.75 -9.25)" fill="#217be4"/>
    </g>
    <g id="Group_1146" data-name="Group 1146" transform="translate(16.601 11.326)">
      <path id="Path_4607" data-name="Path 4607" d="M15.921,17V10.659A1.41,1.41,0,0,1,17.33,9.25H14.159a1.41,1.41,0,0,0-1.409,1.409V17a1.41,1.41,0,0,0,1.409,1.409H17.33A1.41,1.41,0,0,1,15.921,17Z" transform="translate(-12.75 -9.25)" fill="#217be4"/>
    </g>
    <g id="Group_1148" data-name="Group 1148" transform="translate(8.145 30.351)">
      <path id="Path_4609" data-name="Path 4609" d="M9.921,26.273V22.75H6.75v3.523a1.41,1.41,0,0,0,1.409,1.409H11.33A1.41,1.41,0,0,1,9.921,26.273Z" transform="translate(-6.75 -22.75)" fill="#217be4"/>
    </g>
    <g id="Group_1149" data-name="Group 1149" transform="translate(19.42 35.284)">
      <path id="Path_4610" data-name="Path 4610" d="M16.836,26.25a8.15,8.15,0,0,1-2.086,4.228h3.171a8.15,8.15,0,0,0,2.086-4.228Z" transform="translate(-14.75 -26.25)" fill="#217be4"/>
    </g>
    <g id="Group_1150" data-name="Group 1150" transform="translate(7.088 12.383)">
      <path id="Path_4611" data-name="Path 4611" d="M37.357,33.958H8.466A2.469,2.469,0,0,1,6,31.492V12.466A2.469,2.469,0,0,1,8.466,10h3.171v2.114H8.466a.352.352,0,0,0-.352.352V31.492a.352.352,0,0,0,.352.352H37.357a.352.352,0,0,0,.352-.352V12.466a.352.352,0,0,0-.352-.352H34.186V10h3.171a2.469,2.469,0,0,1,2.466,2.466V31.492A2.469,2.469,0,0,1,37.357,33.958Z" transform="translate(-6 -10)"/>
    </g>
    <g id="Group_1151" data-name="Group 1151" transform="translate(8.145 29.294)">
      <path id="Path_4612" data-name="Path 4612" d="M6.75,22H38.459v2.114H6.75Z" transform="translate(-6.75 -22)"/>
    </g>
    <g id="Group_1152" data-name="Group 1152" transform="translate(18.363 35.136)">
      <path id="Path_4613" data-name="Path 4613" d="M24.217,31.578h-9.16a1.056,1.056,0,0,1-.747-1.8A7.175,7.175,0,0,0,16.1,26.156l2.1.275a9.477,9.477,0,0,1-1.049,3.033h4.965a9.7,9.7,0,0,1-1.051-3.026l2.093-.293a7.329,7.329,0,0,0,1.669,3.506,1.057,1.057,0,0,1-.6,1.927Z" transform="translate(-14 -26.145)"/>
    </g>
    <g id="Group_1153" data-name="Group 1153" transform="translate(15.544 10.269)">
      <path id="Path_4614" data-name="Path 4614" d="M26.445,19.774H14.466A2.469,2.469,0,0,1,12,17.308V10.966A2.469,2.469,0,0,1,14.466,8.5H26.445a2.469,2.469,0,0,1,2.466,2.466v6.342A2.469,2.469,0,0,1,26.445,19.774Zm-11.979-9.16a.352.352,0,0,0-.352.352v6.342a.352.352,0,0,0,.352.352H26.445a.352.352,0,0,0,.352-.352V10.966a.352.352,0,0,0-.352-.352Z" transform="translate(-12 -8.5)"/>
    </g>
    <g id="Group_1154" data-name="Group 1154" transform="translate(19.772 6.746)">
      <path id="Path_4615" data-name="Path 4615" d="M23.456,10.58H21.342V8.466a.352.352,0,0,0-.352-.352H17.466a.352.352,0,0,0-.352.352V10.58H15V8.466A2.469,2.469,0,0,1,17.466,6H20.99a2.469,2.469,0,0,1,2.466,2.466Z" transform="translate(-15 -6)"/>
    </g>
    <g id="Group_1155" data-name="Group 1155" transform="translate(16.601 14.497)">
      <path id="Path_4616" data-name="Path 4616" d="M12.75,11.5h14.8v2.114H12.75Z" transform="translate(-12.75 -11.5)"/>
    </g>
    <g id="Group_1156" data-name="Group 1156" transform="translate(22.943 13.087)">
      <path id="Path_4617" data-name="Path 4617" d="M17.25,10.5h2.114v4.933H17.25Z" transform="translate(-17.25 -10.5)"/>
    </g>
  </g>
</svg>
