<svg xmlns="http://www.w3.org/2000/svg" xmlns:xlink="http://www.w3.org/1999/xlink" width="48" height="33.158" viewBox="0 0 48 33.158">
  <defs>
    <linearGradient id="linear-gradient" y1="0.5" x2="1" y2="0.5" gradientUnits="objectBoundingBox">
      <stop offset="0" stop-color="#02a9f7"/>
      <stop offset="1" stop-color="#022e8a"/>
    </linearGradient>
  </defs>
  <g id="logo" transform="translate(-10.361 0)">
    <g id="Layer_1" data-name="Layer 1" transform="translate(10.361 0)">
      <path id="Path_3782" data-name="Path 3782" d="M86.335,8.513A13.707,13.707,0,0,0,73.626,0h-.041a13.734,13.734,0,0,0-9.69,4.03l-4.31,4.31a13.381,13.381,0,0,0-1.326,17.381A8.178,8.178,0,0,1,47.352,13.556l6.466-6.466a5.587,5.587,0,0,0-7.9,0L43.4,9.616a13.7,13.7,0,0,0-3.044,4.6,13.926,13.926,0,0,0,.015,10.421,13.769,13.769,0,0,0,12.709,8.521h.041a13.716,13.716,0,0,0,9.69-4.03l4.145-4.145A14.2,14.2,0,0,0,70.073,9.619,13.927,13.927,0,0,0,68.8,7.164a8.2,8.2,0,0,1,10.572.779,8.074,8.074,0,0,1,2.391,5.768,8.206,8.206,0,0,1-2.412,5.882l-6.729,6.729a5.585,5.585,0,0,0,7.9,0l2.78-2.78a13.711,13.711,0,0,0,3.044-4.606,13.945,13.945,0,0,0-.015-10.423ZM63.012,21.02l-.706.708-1.127,1.119.97-1.391a7.817,7.817,0,0,1,1.379-9.166l1.059-1.059.065-.065.948-.948-.829,1.2a8.609,8.609,0,0,1-1.759,9.607Z" transform="translate(-39.353 0)" fill="url(#linear-gradient)"/>
    </g>
  </g>
</svg>
