<svg id="mail" xmlns="http://www.w3.org/2000/svg" width="23.4" height="23.4" viewBox="0 0 23.4 23.4">
  <g id="sms">
    <path id="Vector" d="M0,0H23.4V23.4H0Z" fill="none" opacity="0"/>
    <path id="Vector-2" data-name="Vector" d="M14.625,0H4.875C1.95,0,0,1.463,0,4.875V11.7c0,3.413,1.95,4.875,4.875,4.875h9.75c2.925,0,4.875-1.463,4.875-4.875V4.875C19.5,1.463,17.55,0,14.625,0Zm.458,5.938L12.032,8.375a3.764,3.764,0,0,1-4.563,0L4.417,5.938A.75.75,0,0,1,4.3,4.9a.729.729,0,0,1,1.024-.117L8.375,7.225a2.327,2.327,0,0,0,2.74,0l3.052-2.438a.72.72,0,0,1,1.024.117A.74.74,0,0,1,15.084,5.938Z" transform="translate(1.95 3.413)" fill="#055cf2"/>
  </g>
</svg>
