<svg id="note-2" xmlns="http://www.w3.org/2000/svg" width="20.733" height="20.733" viewBox="0 0 20.733 20.733">
  <path id="Vector" d="M12.692,6.858l-.847,3.611c-.726,3.119-2.16,4.38-4.855,4.121a9.083,9.083,0,0,1-1.4-.233l-1.451-.346c-3.6-.855-4.717-2.635-3.87-6.246l.847-3.62a9.049,9.049,0,0,1,.639-1.9C2.766.154,4.485-.407,7.37.275L8.813.612C12.433,1.459,13.538,3.247,12.692,6.858Z" transform="translate(6.02 2.161)" fill="none" stroke="#055cf2" stroke-linecap="round" stroke-linejoin="round" stroke-width="1"/>
  <path id="Vector-2" data-name="Vector" d="M11.295,12.345a8.1,8.1,0,0,1-2.03.933L7.9,13.727c-3.43,1.106-5.235.181-6.35-3.248L.444,7.067C-.662,3.637.254,1.823,3.684.717L5.049.268A8.832,8.832,0,0,1,6.059,0,9.049,9.049,0,0,0,5.42,1.9L4.573,5.52c-.847,3.611.268,5.391,3.87,6.246l1.451.346A9.082,9.082,0,0,0,11.295,12.345Z" transform="translate(1.716 4.406)" fill="none" stroke="#055cf2" stroke-linecap="round" stroke-linejoin="round" stroke-width="1"/>
  <path id="Vector-3" data-name="Vector" d="M0,0,4.19,1.063" transform="translate(10.92 7.369)" fill="none" stroke="#055cf2" stroke-linecap="round" stroke-linejoin="round" stroke-width="1"/>
  <path id="Vector-4" data-name="Vector" d="M0,0,2.505.639" transform="translate(10.073 10.712)" fill="none" stroke="#055cf2" stroke-linecap="round" stroke-linejoin="round" stroke-width="1"/>
  <path id="Vector-5" data-name="Vector" d="M0,0H20.733V20.733H0Z" transform="translate(20.733 20.733) rotate(180)" fill="none" opacity="0"/>
</svg>
