<svg xmlns="http://www.w3.org/2000/svg" width="42.248" height="31.686" viewBox="0 0 42.248 31.686">
  <g id="salesman" transform="translate(-2 -7.734)">
    <path id="Path_4575" data-name="Path 4575" d="M12.07,6.75H33.854a1.321,1.321,0,0,1,1.32,1.32V23.253a1.321,1.321,0,0,1-1.32,1.32H12.07a1.321,1.321,0,0,1-1.32-1.32V8.07A1.321,1.321,0,0,1,12.07,6.75Z" transform="translate(2.802 1.975)" fill="#f3f3f1"/>
    <circle id="Ellipse_58" data-name="Ellipse 58" cx="2.971" cy="2.971" r="2.971" transform="translate(10.912 8.725)" fill="#217be4"/>
    <path id="Path_4576" data-name="Path 4576" d="M6.75,17.711a3.96,3.96,0,0,1,3.961-3.961h3.3a3.96,3.96,0,0,1,3.961,3.961v5.125a1.318,1.318,0,0,1-.73,1.18l-1.18.59a1.32,1.32,0,0,0-.73,1.18v7.106a1.321,1.321,0,0,1-1.32,1.32h-3.3a1.321,1.321,0,0,1-1.32-1.32V25.787a1.318,1.318,0,0,0-.73-1.18l-1.18-.59a1.32,1.32,0,0,1-.73-1.18Z" transform="translate(1.521 4.216)" fill="#217be4"/>
    <path id="Path_4577" data-name="Path 4577" d="M11.721,9.721a2.957,2.957,0,0,1,1.485-2.559,2.971,2.971,0,1,0,0,5.117A2.957,2.957,0,0,1,11.721,9.721Z" transform="translate(2.162 1.975)" fill="#217be4"/>
    <path id="Path_4578" data-name="Path 4578" d="M12.361,32.894V25.788a1.318,1.318,0,0,0-.73-1.18l-1.18-.59a1.322,1.322,0,0,1-.73-1.182V17.711a3.96,3.96,0,0,1,3.961-3.961H10.711A3.96,3.96,0,0,0,6.75,17.711v5.125a1.318,1.318,0,0,0,.73,1.18l1.18.59a1.32,1.32,0,0,1,.73,1.18v7.106a1.321,1.321,0,0,0,1.32,1.32h2.971a1.319,1.319,0,0,1-1.32-1.319Z" transform="translate(1.521 4.216)" fill="#217be4"/>
    <path id="Path_4579" data-name="Path 4579" d="M13.721,10.03v5.043a3.515,3.515,0,0,0-.99-.132H10.75V11.627a2.76,2.76,0,0,0,.33.013,2.967,2.967,0,0,0,2.64-1.611Z" transform="translate(2.802 3.025)" fill="#d5dbe1"/>
    <path id="Path_4580" data-name="Path 4580" d="M11.45,6.816a1.311,1.311,0,0,1,.4-.066h2.971A1.324,1.324,0,0,0,13.5,8.07v.29A2.923,2.923,0,0,0,11.45,6.816Z" transform="translate(3.026 1.975)" fill="#d5dbe1"/>
    <path id="Path_4581" data-name="Path 4581" d="M11.961,13.921a3.961,3.961,0,1,1,3.961-3.961A3.966,3.966,0,0,1,11.961,13.921Zm0-5.941a1.98,1.98,0,1,0,1.98,1.98A1.983,1.983,0,0,0,11.961,7.98Z" transform="translate(1.921 1.734)"/>
    <path id="Path_4582" data-name="Path 4582" d="M14.252,35.444h-3.3a2.313,2.313,0,0,1-2.31-2.31V26.028a.33.33,0,0,0-.182-.3l-1.182-.59A2.3,2.3,0,0,1,6,23.076V17.951A4.956,4.956,0,0,1,10.951,13h3.3A4.956,4.956,0,0,1,19.2,17.951v5.125a2.3,2.3,0,0,1-1.277,2.066l-1.182.59a.33.33,0,0,0-.182.3v7.106a2.313,2.313,0,0,1-2.31,2.31Zm-3.3-20.464A2.973,2.973,0,0,0,7.98,17.951v5.125a.33.33,0,0,0,.182.3l1.182.59a2.3,2.3,0,0,1,1.277,2.066v7.106a.33.33,0,0,0,.33.33h3.3a.33.33,0,0,0,.33-.33V26.028a2.3,2.3,0,0,1,1.277-2.066l1.182-.59a.327.327,0,0,0,.182-.3V17.951a2.973,2.973,0,0,0-2.971-2.971Z" transform="translate(1.281 3.976)"/>
    <path id="Path_4584" data-name="Path 4584" d="M32.173,25.8H18.64v-1.98H32.173a.33.33,0,0,0,.33-.33V8.31a.33.33,0,0,0-.33-.33H16V6H32.173a2.313,2.313,0,0,1,2.31,2.31V23.493A2.313,2.313,0,0,1,32.173,25.8Z" transform="translate(4.483 1.734)"/>
    <path id="Path_4585" data-name="Path 4585" d="M25.526,27.16l-4.147-5.1-4.147,5.1-1.538-1.249,4.915-6.051a1.023,1.023,0,0,1,1.537,0l4.915,6.051Z" transform="translate(4.385 6.062)"/>
    <path id="Path_4586" data-name="Path 4586" d="M2,28.5H44.248v1.98H2Z" transform="translate(0 8.94)"/>
  </g>
</svg>
