<svg id="whatsapp" xmlns="http://www.w3.org/2000/svg" width="23.7" height="23.7" viewBox="0 0 23.7 23.7">
  <g id="whatsapp-2" data-name="whatsapp">
    <path id="BG_164" data-name="BG 164" d="M0,0H23.7V23.7H0Z" fill="none" opacity="0.58"/>
    <path id="Vector" d="M19.736,9.293a9.878,9.878,0,1,0-18.417,5.52L.441,18.081a.984.984,0,0,0,1.215,1.2L4.874,18.4a9.829,9.829,0,0,0,5,1.353A10.027,10.027,0,0,0,19.736,9.293ZM14.7,13.549a2.356,2.356,0,0,1-.336.5,2.251,2.251,0,0,1-.81.583,2.416,2.416,0,0,1-.968.188,4.022,4.022,0,0,1-1.61-.365,9.044,9.044,0,0,1-1.7-.978A14.269,14.269,0,0,1,7.659,12.1a14.122,14.122,0,0,1-1.383-1.62,8.687,8.687,0,0,1-.968-1.689A4.182,4.182,0,0,1,4.953,7.17a2.58,2.58,0,0,1,.178-.958A2.205,2.205,0,0,1,5.7,5.382a1.427,1.427,0,0,1,1.027-.464.966.966,0,0,1,.4.089.818.818,0,0,1,.336.276L8.617,6.9a1.594,1.594,0,0,1,.2.346.721.721,0,0,1,.069.306.708.708,0,0,1-.109.356,1.738,1.738,0,0,1-.277.355l-.375.395a.254.254,0,0,0-.079.2.5.5,0,0,0,.02.118.681.681,0,0,1,.04.1,3.958,3.958,0,0,0,.464.632c.227.257.464.523.721.78s.523.5.79.731a3.791,3.791,0,0,0,.642.454c.03.01.059.03.089.039a.324.324,0,0,0,.336-.069l.375-.375a1.586,1.586,0,0,1,.356-.276.68.68,0,0,1,.355-.109.721.721,0,0,1,.306.069,1.8,1.8,0,0,1,.346.2l1.639,1.165a.834.834,0,0,1,.276.316,1.033,1.033,0,0,1,.079.385C14.818,13.183,14.779,13.371,14.7,13.549Z" transform="translate(1.969 1.975)" fill="#055cf2"/>
    <path id="Vector-2" data-name="Vector" d="M0,0H23.7V23.7H0Z" fill="none" opacity="0"/>
  </g>
</svg>
